<svg width="64" height="64" viewBox="0 0 64 64" fill="none" xmlns="http://www.w3.org/2000/svg">
<mask id="path-1-inside-1_581_1337" fill="white">
<path d="M0 32C0 14.3269 14.3269 0 32 0C49.6731 0 64 14.3269 64 32C64 49.6731 49.6731 64 32 64C14.3269 64 0 49.6731 0 32Z"/>
</mask>
<path d="M0 32C0 14.3269 14.3269 0 32 0C49.6731 0 64 14.3269 64 32C64 49.6731 49.6731 64 32 64C14.3269 64 0 49.6731 0 32Z" fill="url(#paint0_linear_581_1337)"/>
<path d="M32 63C14.8792 63 1 49.1208 1 32H-1C-1 50.2254 13.7746 65 32 65V63ZM63 32C63 49.1208 49.1208 63 32 63V65C50.2254 65 65 50.2254 65 32H63ZM32 1C49.1208 1 63 14.8792 63 32H65C65 13.7746 50.2254 -1 32 -1V1ZM32 -1C13.7746 -1 -1 13.7746 -1 32H1C1 14.8792 14.8792 1 32 1V-1Z" fill="url(#paint1_linear_581_1337)" mask="url(#path-1-inside-1_581_1337)"/>
<path d="M22.3334 17L45.6667 32L22.3334 47V17Z" fill="#F3F3F3"/>
<defs>
<linearGradient id="paint0_linear_581_1337" x1="32.0389" y1="26.566" x2="32.4092" y2="0.00516929" gradientUnits="userSpaceOnUse">
<stop stop-color="#7F42FA"/>
<stop offset="1" stop-color="#9E83FF"/>
</linearGradient>
<linearGradient id="paint1_linear_581_1337" x1="32.0389" y1="26.566" x2="32.4092" y2="0.00516929" gradientUnits="userSpaceOnUse">
<stop stop-color="#6621E7"/>
<stop offset="1" stop-color="#9C7FFF"/>
</linearGradient>
</defs>
</svg>
