<svg width="182" height="71" viewBox="0 0 182 71" fill="none" xmlns="http://www.w3.org/2000/svg">
<g clip-path="url(#clip0_2001_788)">
<mask id="mask0_2001_788" style="mask-type:luminance" maskUnits="userSpaceOnUse" x="0" y="0" width="182" height="71">
<path d="M181.5 0H0.5V71H181.5V0Z" fill="white"/>
</mask>
<g mask="url(#mask0_2001_788)">
<path d="M63.6934 41.7224C66.8273 45.4949 79.0483 47.955 88.8247 47.955C107.65 47.955 131.65 36.1282 143.695 28.8942C156.015 21.495 164.602 18.3847 180.805 19.059" stroke="#F3F3F3" stroke-width="0.5"/>
<path d="M63.6934 48.676C66.8273 52.4484 79.0483 54.9086 88.8247 54.9086C107.65 54.9086 131.65 43.0818 143.695 35.8478C156.015 28.4485 164.602 25.3383 180.805 26.0126" stroke="#F3F3F3" stroke-width="0.5"/>
<path d="M63.6934 55.2844C66.8273 59.0568 79.0483 61.517 88.8247 61.517C107.65 61.517 131.65 49.6902 143.695 42.4562C156.015 35.0569 164.602 31.9467 180.805 32.621" stroke="#F3F3F3" stroke-width="0.5"/>
<path d="M63.6934 62.2815C66.8273 66.054 79.0483 68.5142 88.8247 68.5142C107.65 68.5142 131.65 56.6874 143.695 49.4534C156.015 42.0541 164.602 38.9438 180.805 39.6181" stroke="#F3F3F3" stroke-width="0.5"/>
<path d="M63.6934 33.5154C66.8273 37.2879 79.0483 39.7481 88.8247 39.7481C107.65 39.7481 131.65 27.9213 143.695 20.6872C156.015 13.288 164.602 10.1777 180.805 10.852" stroke="#F3F3F3" stroke-width="0.5"/>
<path d="M86.7087 46.8421C86.3611 40.2978 84.4518 37.1283 82.5375 35.7671C79.3622 33.5092 74.4662 36.7948 73.6786 41.808C73.5527 42.6104 75.222 42.9402 76.0103 42.3492C77.5141 41.2225 79.9361 42.6009 79.3243 46.895C78.8377 50.3171 73.7795 52.6711 73.5 44.099C73.5 30.9832 89.4867 31.7806 89.0168 45.874C88.8916 63.735 74.8633 70.6549 73.9275 69.5434C73.9275 69.5434 74.8904 69.6633 75.8562 69.218C77.6712 68.4781 80.3197 66.6958 82.1899 63.958C85.0061 59.8354 87.1282 54.7392 86.7087 46.8421Z" fill="#F3F3F3" stroke="#F3F3F3" stroke-width="0.777465" stroke-linecap="round" stroke-linejoin="round"/>
<path d="M92.9201 43.1609C93.7087 43.1609 94.348 42.235 94.348 41.0929C94.348 39.9507 93.7087 39.0249 92.9201 39.0249C92.1315 39.0249 91.4922 39.9507 91.4922 41.0929C91.4922 42.235 92.1315 43.1609 92.9201 43.1609Z" fill="#F3F3F3" stroke="#F3F3F3" stroke-width="0.583099" stroke-linecap="round" stroke-linejoin="round"/>
<path d="M92.9201 53.3147C93.7087 53.3147 94.348 52.3888 94.348 51.2467C94.348 50.1045 93.7087 49.1787 92.9201 49.1787C92.1315 49.1787 91.4922 50.1045 91.4922 51.2467C91.4922 52.3888 92.1315 53.3147 92.9201 53.3147Z" fill="#F3F3F3" stroke="#F3F3F3" stroke-width="0.583099" stroke-linecap="round" stroke-linejoin="round"/>
<path d="M24.6127 26.8002C24.7194 25.4989 24.922 24.0482 25.2207 22.4482C25.5407 20.8269 25.9034 19.1735 26.3087 17.4882C26.7354 15.7815 27.194 14.1175 27.6847 12.4962C28.1967 10.8749 28.7087 9.38155 29.2207 8.01622C29.754 6.65089 30.266 5.50955 30.7567 4.59222C29.7114 5.44555 28.6874 6.49089 27.6847 7.72822C26.682 8.94422 25.7114 10.2562 24.7727 11.6642C23.8554 13.0509 22.9807 14.4269 22.1487 15.7922C21.338 17.1362 20.602 18.3735 19.9407 19.5042C19.2794 20.6349 18.714 21.5522 18.2447 22.2562C17.9034 22.7682 17.4767 23.4082 16.9647 24.1762C16.4527 24.9442 15.8554 25.7549 15.1727 26.6082C14.49 27.4615 13.7114 28.2615 12.8367 29.0082C11.9834 29.7549 11.034 30.3629 9.98869 30.8322C8.94335 31.3015 7.80202 31.5362 6.56469 31.5362C5.30602 31.5362 4.25002 31.2589 3.39669 30.7042C2.54335 30.1709 1.89269 29.4669 1.44469 28.5922C1.01802 27.7175 0.804688 26.8002 0.804688 25.8402C0.804688 24.8375 1.01802 23.8669 1.44469 22.9282C1.87135 21.9682 2.43669 21.0829 3.14069 20.2722C3.86602 19.4615 4.67669 18.7789 5.57269 18.2242C6.49002 17.6695 7.42869 17.2855 8.38869 17.0722C8.47402 17.0509 8.54869 17.0402 8.61269 17.0402C8.76202 17.0402 8.83669 17.1042 8.83669 17.2322C8.83669 17.2962 8.71935 17.3922 8.48469 17.5202C6.67135 18.5015 5.31669 19.7389 4.42069 21.2322C3.52469 22.7255 3.07669 24.1975 3.07669 25.6482C3.07669 26.4589 3.25802 27.2055 3.62069 27.8882C3.98335 28.5709 4.48469 29.1042 5.12469 29.4882C5.76469 29.8935 6.50069 30.0962 7.33269 30.0962C8.46335 30.0962 9.49802 29.8402 10.4367 29.3282C11.3754 28.8375 12.2394 28.1762 13.0287 27.3442C13.818 26.5335 14.5647 25.6482 15.2687 24.6882C15.994 23.7069 16.6874 22.7469 17.3487 21.8082C17.7754 21.2322 18.2874 20.4535 18.8847 19.4722C19.482 18.4695 20.154 17.3602 20.9007 16.1442C21.6687 14.9069 22.4794 13.6375 23.3327 12.3362C24.2074 11.0349 25.114 9.77622 26.0527 8.56022C26.9914 7.34422 27.9407 6.24555 28.9007 5.26422C29.882 4.28289 30.8634 3.50422 31.8447 2.92822C32.0794 2.77889 32.2927 2.67222 32.4847 2.60822C32.698 2.54422 32.9967 2.51222 33.3807 2.51222C33.6367 2.51222 33.7327 2.59755 33.6687 2.76822C33.6047 2.91755 33.498 3.09889 33.3487 3.31222C32.858 4.05889 32.346 5.06155 31.8127 6.32022C31.3007 7.55755 30.7887 8.96555 30.2767 10.5442C29.786 12.1229 29.3167 13.7655 28.8687 15.4722C28.4207 17.1789 28.0154 18.8855 27.6527 20.5922C27.29 22.2775 27.002 23.8455 26.7887 25.2962C28.8367 21.6055 30.8847 18.2562 32.9327 15.2482C35.002 12.2402 37.0287 9.64822 39.0127 7.47222C41.018 5.29622 42.9487 3.61089 44.8047 2.41622C45.1034 2.09622 45.5194 1.73355 46.0527 1.32822C46.586 0.922882 47.098 0.720215 47.5887 0.720215C47.8874 0.720215 48.1327 0.805548 48.3247 0.976214C48.538 1.12555 48.6447 1.31755 48.6447 1.55222C48.6447 1.78689 48.4954 2.05355 48.1967 2.35222C47.9194 2.62955 47.514 2.85355 46.9807 3.02422C46.8314 3.06689 46.6607 3.12022 46.4687 3.18422C46.298 3.22689 46.106 3.26955 45.8927 3.31222C44.9967 4.65622 44.0047 6.39489 42.9167 8.52822C41.85 10.6402 40.8687 12.9869 39.9727 15.5682C39.482 16.9975 39.0127 18.4695 38.5647 19.9842C38.138 21.4775 37.9247 22.8642 37.9247 24.1442C37.9247 24.6135 38.01 25.0615 38.1807 25.4882C38.3514 25.9149 38.6714 26.1282 39.1407 26.1282C39.6954 26.1282 40.3034 25.8295 40.9647 25.2322C41.626 24.6135 42.2767 23.8242 42.9167 22.8642C43.5567 21.9042 44.09 20.8909 44.5167 19.8242C44.7727 19.8242 44.9007 19.9202 44.9007 20.1122C44.3887 21.2855 43.7807 22.4269 43.0767 23.5362C42.394 24.6455 41.6367 25.5522 40.8047 26.2562C39.994 26.9815 39.1407 27.3442 38.2447 27.3442C37.5407 27.3442 36.9647 27.0882 36.5167 26.5762C36.09 26.0642 35.8767 25.3069 35.8767 24.3042C35.8767 23.4509 36.0154 22.4055 36.2927 21.1682C36.5914 19.9095 36.986 18.5549 37.4767 17.1042C37.9887 15.6322 38.5434 14.1495 39.1407 12.6562C39.9087 10.8002 40.6554 9.17889 41.3807 7.79222C42.106 6.38422 42.778 5.21089 43.3967 4.27222C41.626 5.68022 39.802 7.53622 37.9247 9.84022C36.0687 12.1229 34.202 14.7469 32.3247 17.7122C30.4474 20.6775 28.5807 23.8882 26.7247 27.3442C26.554 27.6642 26.2874 27.8455 25.9247 27.8882C25.5834 27.9522 25.274 27.8882 24.9967 27.6962C24.7194 27.5255 24.5914 27.2269 24.6127 26.8002ZM54.4259 22.8962C53.9139 23.7495 53.2846 24.5069 52.5379 25.1682C51.7913 25.8082 50.8313 26.1282 49.6579 26.1282C48.8686 26.1282 48.1539 25.8722 47.5139 25.3602C46.8953 24.8482 46.5859 24.0695 46.5859 23.0242C46.5859 22.1495 46.7779 21.2215 47.1619 20.2402C47.5673 19.2589 48.0899 18.3415 48.7299 17.4882C49.3913 16.6135 50.1166 15.9095 50.9059 15.3762C51.7166 14.8215 52.5273 14.5442 53.3379 14.5442C53.7433 14.5442 54.1379 14.6615 54.5219 14.8962C54.9059 15.1309 55.0979 15.5362 55.0979 16.1122C55.0979 16.6455 54.8953 17.2322 54.4899 17.8722C54.0846 18.5122 53.5086 19.1095 52.7619 19.6642C52.4419 19.8989 52.0366 20.1229 51.5459 20.3362C51.0553 20.5495 50.5646 20.7309 50.0739 20.8802C49.5833 21.0082 49.1779 21.0722 48.8579 21.0722C48.7513 21.3282 48.6446 21.6695 48.5379 22.0962C48.4526 22.5229 48.4099 22.9602 48.4099 23.4082C48.4099 23.9415 48.5166 24.4215 48.7299 24.8482C48.9433 25.2749 49.3379 25.4882 49.9139 25.4882C50.8099 25.4882 51.6099 25.1682 52.3139 24.5282C53.0179 23.8882 53.6153 23.1735 54.1059 22.3842C54.1913 22.3842 54.2659 22.4162 54.3299 22.4802C54.3939 22.5442 54.4259 22.6829 54.4259 22.8962ZM49.0819 20.4962C49.3806 20.4962 49.8819 20.3895 50.5859 20.1762C51.2899 19.9415 51.9299 19.5789 52.5059 19.0882C53.0606 18.5975 53.4873 18.0642 53.7859 17.4882C54.0846 16.8909 54.2339 16.3895 54.2339 15.9842C54.2339 15.5149 54.0633 15.2802 53.7219 15.2802C53.4659 15.2802 53.1139 15.4509 52.6659 15.7922C52.2179 16.1335 51.6633 16.7095 51.0019 17.5202C50.5966 18.0322 50.2126 18.5869 49.8499 19.1842C49.4873 19.7815 49.2313 20.2189 49.0819 20.4962ZM63.0964 20.9442C62.5418 21.8829 62.0084 22.7469 61.4964 23.5362C60.9844 24.3255 60.4511 24.9549 59.8964 25.4242C59.3631 25.8722 58.7551 26.0962 58.0724 26.0962C57.5604 26.0962 57.1018 25.9469 56.6964 25.6482C56.2911 25.3282 56.0884 24.8695 56.0884 24.2722C56.0884 23.9095 56.1738 23.5149 56.3444 23.0882C56.4938 22.6615 56.7178 22.2989 57.0164 22.0002C57.3364 21.7015 57.7204 21.5735 58.1684 21.6162C58.4671 21.6375 58.7338 21.7549 58.9684 21.9682C58.5844 22.3309 58.2858 22.7575 58.0724 23.2482C57.8591 23.7389 57.7524 24.1655 57.7524 24.5282C57.7524 24.7415 57.7951 24.9442 57.8804 25.1362C57.9871 25.3069 58.1684 25.3922 58.4244 25.3922C58.8298 25.3922 59.2458 25.1682 59.6724 24.7202C60.1204 24.2509 60.5791 23.6535 61.0484 22.9282C61.5391 22.1815 62.0191 21.4135 62.4884 20.6242C63.1071 19.6215 63.7151 18.6935 64.3124 17.8402C64.9311 16.9869 65.5071 16.3255 66.0404 15.8562C66.7231 15.2802 67.3738 14.9922 67.9924 14.9922H68.1204C68.9738 14.9922 69.2084 15.3975 68.8244 16.2082L67.7044 18.6082C67.5124 18.9922 67.2778 19.4722 67.0004 20.0482C66.7444 20.6029 66.4884 21.1789 66.2324 21.7762C65.9978 22.3522 65.8058 22.9069 65.6564 23.4402C65.5284 23.9522 65.4858 24.3682 65.5284 24.6882C65.5924 25.0082 65.8058 25.1682 66.1684 25.1682C66.7018 25.1682 67.2244 24.8909 67.7364 24.3362C68.2698 23.7815 68.7711 23.0989 69.2404 22.2882C69.7098 21.4562 70.1258 20.6349 70.4884 19.8242C70.5738 19.8242 70.6591 19.8562 70.7444 19.9202C70.8298 19.9629 70.8724 20.0269 70.8724 20.1122C70.4884 21.0722 70.0404 22.0002 69.5284 22.8962C69.0378 23.7922 68.4618 24.5282 67.8004 25.1042C67.1604 25.6802 66.4138 25.9682 65.5604 25.9682C64.7284 25.9682 64.2058 25.6802 63.9924 25.1042C63.8004 24.5069 63.8218 23.7282 64.0564 22.7682C64.3124 21.8082 64.7071 20.7629 65.2404 19.6322C65.7738 18.4802 66.3604 17.3602 67.0004 16.2722C67.2351 15.8882 67.2991 15.6962 67.1924 15.6962C67.1071 15.6962 66.9578 15.7815 66.7444 15.9522C66.5524 16.1015 66.3711 16.2615 66.2004 16.4322C65.7951 16.8162 65.3578 17.3495 64.8884 18.0322C64.4191 18.7149 63.8218 19.6855 63.0964 20.9442ZM75.2839 26.0002C74.4093 26.0002 73.7586 25.6909 73.3319 25.0722C72.9266 24.4322 72.7239 23.6642 72.7239 22.7682C72.7239 21.9362 72.8839 21.0722 73.2039 20.1762C73.5453 19.1949 74.0146 18.2989 74.6119 17.4882C75.2306 16.6775 75.9026 16.0269 76.6279 15.5362C77.3746 15.0242 78.1106 14.7682 78.8359 14.7682C79.7106 14.7682 80.3506 15.0669 80.7559 15.6642C81.1826 16.2615 81.3959 17.0189 81.3959 17.9362C81.3959 18.5762 81.2893 19.2482 81.0759 19.9522C80.8626 20.6562 80.5746 21.3495 80.2119 22.0322C80.4893 22.3095 80.8839 22.4482 81.3959 22.4482C81.9933 22.4482 82.5053 22.2562 82.9319 21.8722C83.3586 21.4882 83.7746 20.8055 84.1799 19.8242C84.4359 19.8242 84.5639 19.9202 84.5639 20.1122C84.1586 21.0935 83.6893 21.8189 83.1559 22.2882C82.6439 22.7362 81.9826 22.9495 81.1719 22.9282C80.6813 22.9282 80.2759 22.7895 79.9559 22.5122C79.3586 23.4935 78.6439 24.3255 77.8119 25.0082C77.0013 25.6695 76.1586 26.0002 75.2839 26.0002ZM75.7319 25.2962C76.2226 25.2962 76.7133 25.0935 77.2039 24.6882C77.6946 24.2615 78.1426 23.7815 78.5479 23.2482C78.9533 22.7149 79.2413 22.2562 79.4119 21.8722C79.0706 21.2535 78.8679 20.7949 78.8039 20.4962C78.7613 20.1762 78.7399 19.9415 78.7399 19.7922C78.7399 19.3869 78.8466 19.0775 79.0599 18.8642C79.2733 18.6509 79.4866 18.5442 79.6999 18.5442C79.9986 18.5442 80.2546 18.6722 80.4679 18.9282C80.5106 18.6935 80.5426 18.4802 80.5639 18.2882C80.5853 18.0749 80.5959 17.8722 80.5959 17.6802C80.5959 17.1255 80.4893 16.6775 80.2759 16.3362C80.0839 15.9735 79.7746 15.7922 79.3479 15.7922C78.8999 15.7922 78.4306 15.9842 77.9399 16.3682C77.4493 16.7522 76.9799 17.2642 76.5319 17.9042C76.1053 18.5442 75.7319 19.2589 75.4119 20.0482C75.1346 20.7095 74.9213 21.3389 74.7719 21.9362C74.6226 22.5122 74.5479 23.0455 74.5479 23.5362C74.5479 24.0695 74.6439 24.4962 74.8359 24.8162C75.0279 25.1362 75.3266 25.2962 75.7319 25.2962ZM87.8564 26.0002C87.0458 26.0002 86.4484 25.7335 86.0644 25.2002C85.6804 24.6455 85.4884 23.9735 85.4884 23.1842C85.4884 22.3522 85.6804 21.4562 86.0644 20.4962C86.4484 19.5149 86.9604 18.5975 87.6004 17.7442C88.2404 16.8695 88.9551 16.1549 89.7444 15.6002C90.5338 15.0455 91.3231 14.7682 92.1124 14.7682C92.7311 14.7682 93.2538 14.9709 93.6804 15.3762C94.1071 15.7815 94.3098 16.2615 94.2884 16.8162C94.9284 15.3655 95.4511 13.9149 95.8564 12.4642C96.2831 10.9922 96.4964 9.50955 96.4964 8.01622C96.4964 6.86422 96.3258 5.98955 95.9844 5.39222C95.6431 4.77355 95.2271 4.34689 94.7364 4.11222C94.2458 3.87755 93.7764 3.76022 93.3284 3.76022C92.4111 3.76022 91.4831 4.16555 90.5444 4.97622C89.6058 5.78689 88.8058 7.03489 88.1444 8.72022C88.0804 8.86955 88.0271 9.00821 87.9844 9.13622C87.9631 9.24289 87.9311 9.42422 87.8884 9.68022C87.0778 9.68022 86.6724 9.44555 86.6724 8.97622C86.6724 8.69889 86.7791 8.36822 86.9924 7.98422C87.2058 7.57889 87.3871 7.25889 87.5364 7.02422C88.3258 5.82955 89.2964 4.89089 90.4484 4.20822C91.6004 3.52555 92.7311 3.18422 93.8404 3.18422C94.6084 3.18422 95.3231 3.36555 95.9844 3.72822C96.6458 4.06955 97.1791 4.60289 97.5844 5.32822C97.9898 6.05355 98.1924 6.99222 98.1924 8.14422C98.1924 9.38155 98.0004 10.7575 97.6164 12.2722C97.2538 13.7655 96.7524 15.2802 96.1124 16.8162C95.4938 18.3309 94.7684 19.7389 93.9364 21.0402C93.1258 22.3415 92.2724 23.4189 91.3764 24.2722C90.8858 24.7415 90.3418 25.1469 89.7444 25.4882C89.1684 25.8295 88.5391 26.0002 87.8564 26.0002ZM88.3044 25.2962C88.9018 25.2962 89.5098 24.9762 90.1284 24.3362C90.7471 23.6749 91.3231 22.8962 91.8564 22.0002C92.0911 21.6162 92.3471 21.1575 92.6244 20.6242C92.9018 20.0695 93.1684 19.5255 93.4244 18.9922C93.6804 18.4375 93.8511 17.9789 93.9364 17.6162C93.8724 16.9122 93.7231 16.4322 93.4884 16.1762C93.2751 15.9202 93.0084 15.7922 92.6884 15.7922C92.1124 15.7922 91.5044 16.0695 90.8644 16.6242C90.2458 17.1575 89.6591 17.8509 89.1044 18.7042C88.5711 19.5575 88.1338 20.4429 87.7924 21.3602C87.4511 22.2775 87.2804 23.1202 87.2804 23.8882C87.2804 24.2722 87.3551 24.6029 87.5044 24.8802C87.6538 25.1575 87.9204 25.2962 88.3044 25.2962ZM100.841 25.2642C101.353 25.2642 101.972 24.8482 102.697 24.0162C103.295 23.3122 103.881 22.4695 104.457 21.4882C105.033 20.5069 105.577 19.4935 106.089 18.4482C106.623 17.4029 107.092 16.4642 107.497 15.6322C107.732 15.1629 108.148 14.9282 108.745 14.9282H110.505C110.036 15.3122 109.556 15.8882 109.065 16.6562C108.596 17.4242 108.073 18.4055 107.497 19.6002C107.348 19.9202 107.156 20.3255 106.921 20.8162C106.687 21.3069 106.473 21.8295 106.281 22.3842C106.111 22.9389 106.025 23.4935 106.025 24.0482C106.025 24.7949 106.292 25.1682 106.825 25.1682C107.316 25.1682 107.807 24.9229 108.297 24.4322C108.788 23.9202 109.268 23.2375 109.737 22.3842C110.015 22.3842 110.153 22.4695 110.153 22.6402C109.684 23.5149 109.129 24.2935 108.489 24.9762C107.871 25.6589 107.156 26.0002 106.345 26.0002C105.812 26.0002 105.375 25.8082 105.033 25.4242C104.692 25.0189 104.521 24.4535 104.521 23.7282C104.521 23.1522 104.628 22.5335 104.841 21.8722C104.479 22.5122 104.063 23.1522 103.593 23.7922C103.124 24.4322 102.623 24.9655 102.089 25.3922C101.556 25.7975 101.023 26.0002 100.489 26.0002C100.255 26.0002 99.9668 25.9469 99.6254 25.8402C99.3054 25.7335 99.0174 25.5415 98.7614 25.2642C98.5268 24.9655 98.4094 24.5282 98.4094 23.9522C98.4094 23.3975 98.5268 22.7469 98.7614 22.0002C98.9961 21.2535 99.2841 20.4749 99.6254 19.6642C99.9881 18.8535 100.351 18.0962 100.713 17.3922C101.097 16.6669 101.417 16.0802 101.673 15.6322C101.929 15.1629 102.335 14.9282 102.889 14.9282H104.873C104.639 15.1202 104.404 15.3229 104.169 15.5362C103.935 15.7495 103.668 16.0695 103.369 16.4962C103.092 16.9229 102.729 17.5522 102.281 18.3842C102.089 18.7255 101.876 19.1735 101.641 19.7282C101.407 20.2615 101.172 20.8162 100.937 21.3922C100.703 21.9682 100.511 22.5122 100.361 23.0242C100.212 23.5149 100.137 23.9095 100.137 24.2082C100.137 24.9122 100.372 25.2642 100.841 25.2642ZM113.976 25.5202C114.338 25.5202 114.786 25.3175 115.32 24.9122C115.874 24.4855 116.45 23.9522 117.048 23.3122C117.645 22.6509 118.2 21.9575 118.712 21.2322C118.456 21.2962 118.189 21.3282 117.912 21.3282C117.144 21.3282 116.578 21.1255 116.216 20.7202C115.874 20.3149 115.704 19.8135 115.704 19.2162C115.704 18.5762 115.885 17.9149 116.248 17.2322C116.61 16.5282 117.112 15.9415 117.752 15.4722C118.413 15.0029 119.149 14.7682 119.96 14.7682C121.026 14.7682 121.666 15.2269 121.88 16.1442C121.944 15.9735 122.018 15.8135 122.104 15.6642C122.232 15.4082 122.402 15.2375 122.616 15.1522C122.829 15.0455 123.085 14.9922 123.384 14.9922H125.112C124.92 15.1415 124.557 15.4935 124.024 16.0482C123.512 16.5815 122.914 17.5415 122.232 18.9282C121.997 19.3975 121.741 19.9522 121.464 20.5922C121.186 21.2322 120.952 21.8829 120.76 22.5442C120.568 23.2055 120.472 23.7922 120.472 24.3042C120.472 25.0082 120.717 25.3602 121.208 25.3602C121.613 25.3602 122.018 25.1789 122.424 24.8162C122.85 24.4322 123.256 23.9522 123.64 23.3762C124.045 22.8002 124.418 22.2029 124.76 21.5842C125.101 20.9442 125.378 20.3575 125.592 19.8242C125.848 19.8242 125.976 19.9202 125.976 20.1122C125.741 20.6669 125.442 21.2962 125.08 22.0002C124.738 22.7042 124.333 23.3869 123.864 24.0482C123.394 24.6882 122.872 25.2215 122.296 25.6482C121.741 26.0535 121.122 26.2562 120.44 26.2562C119.842 26.2562 119.416 26.0855 119.16 25.7442C118.925 25.4029 118.808 24.9549 118.808 24.4002C118.808 23.8669 118.893 23.2909 119.064 22.6722C119.234 22.0535 119.437 21.4455 119.672 20.8482V20.8802C119.032 21.7549 118.37 22.5975 117.688 23.4082C117.005 24.2189 116.312 24.8909 115.608 25.4242C114.904 25.9575 114.232 26.2242 113.592 26.2242C112.973 26.2242 112.493 26.0429 112.152 25.6802C111.81 25.3175 111.64 24.8589 111.64 24.3042C111.64 23.8775 111.746 23.4722 111.96 23.0882C112.173 22.7042 112.44 22.3842 112.76 22.1282C113.08 21.8722 113.41 21.7442 113.752 21.7442C113.901 21.7442 114.04 21.7655 114.168 21.8082C114.317 21.8509 114.456 21.9255 114.584 22.0322C114.178 22.3735 113.869 22.7895 113.656 23.2802C113.442 23.7709 113.336 24.1975 113.336 24.5602C113.336 24.8162 113.378 25.0402 113.464 25.2322C113.57 25.4242 113.741 25.5202 113.976 25.5202ZM118.232 20.8482C118.765 20.8482 119.234 20.6349 119.64 20.2082C120.045 19.7602 120.365 19.2162 120.6 18.5762C120.856 17.9149 120.984 17.2855 120.984 16.6882C120.984 15.7709 120.706 15.3122 120.152 15.3122C119.81 15.3122 119.469 15.4615 119.128 15.7602C118.786 16.0375 118.466 16.4109 118.168 16.8802C117.869 17.3282 117.624 17.7975 117.432 18.2882C117.261 18.7789 117.176 19.2269 117.176 19.6322C117.176 19.9735 117.25 20.2615 117.4 20.4962C117.57 20.7309 117.848 20.8482 118.232 20.8482ZM28.0654 32.3682C28.1081 32.3042 28.1828 32.2722 28.2894 32.2722C28.4601 32.2722 28.5348 32.3149 28.5134 32.4002C28.5134 32.4642 28.4708 32.5709 28.3854 32.7202C28.2148 32.9975 27.9694 33.3175 27.6494 33.6802C27.3508 34.0215 26.9774 34.3202 26.5294 34.5762C26.0814 34.8322 25.5374 34.9602 24.8974 34.9602C24.3641 34.9602 23.7988 34.8535 23.2014 34.6402C22.6254 34.4055 22.0388 34.1495 21.4414 33.8722C20.8654 33.5949 20.3214 33.3495 19.8094 33.1362C19.2974 32.9015 18.8494 32.7842 18.4654 32.7842C17.8468 32.7842 17.3561 32.9869 16.9934 33.3922C16.6308 33.7762 16.4494 34.2775 16.4494 34.8962C16.4494 35.4722 16.5881 36.1655 16.8654 36.9762C17.1641 37.7655 17.4948 38.6295 17.8574 39.5682C18.2201 40.4855 18.5401 41.4349 18.8174 42.4162C19.1161 43.3762 19.2654 44.3149 19.2654 45.2322C19.2654 46.2349 19.0734 47.2589 18.6894 48.3042C18.3054 49.3282 17.7828 50.2775 17.1214 51.1522C16.4814 52.0055 15.7561 52.6989 14.9454 53.2322C14.1561 53.7442 13.3454 54.0002 12.5134 54.0002C11.6814 54.0002 11.0734 53.7335 10.6894 53.2002C10.3054 52.6455 10.1134 51.9735 10.1134 51.1842C10.1134 50.2242 10.3374 49.2215 10.7854 48.1762C11.1908 47.1949 11.7241 46.2989 12.3854 45.4882C13.0681 44.6775 13.8041 44.0269 14.5934 43.5362C15.3828 43.0242 16.1614 42.7682 16.9294 42.7682C17.1001 42.7682 17.2814 42.7895 17.4734 42.8322C17.6868 42.8535 17.9108 42.9175 18.1454 43.0242C17.8468 42.0002 17.4948 40.9549 17.0894 39.8882C16.6841 38.8002 16.3214 37.7869 16.0014 36.8482C15.6814 35.8882 15.5214 35.0669 15.5214 34.3842C15.5214 33.5095 15.8201 32.7735 16.4174 32.1762C17.0148 31.5789 17.8681 31.2802 18.9774 31.2802C19.5961 31.2802 20.1934 31.3975 20.7694 31.6322C21.3668 31.8455 21.9428 32.1015 22.4974 32.4002C23.0734 32.6775 23.6388 32.9335 24.1934 33.1682C24.7481 33.3815 25.3028 33.4882 25.8574 33.4882C26.4334 33.4882 26.8921 33.3922 27.2334 33.2002C27.5748 32.9869 27.8521 32.7095 28.0654 32.3682ZM18.0814 45.4562C18.0814 45.2642 18.0601 45.0402 18.0174 44.7842C17.9961 44.5069 17.9108 44.2722 17.7614 44.0802C17.6334 43.8882 17.4201 43.7922 17.1214 43.7922C16.6094 43.7922 15.9694 44.1549 15.2014 44.8802C14.4334 45.6055 13.7081 46.6615 13.0254 48.0482C12.6841 48.7735 12.4068 49.4775 12.1934 50.1602C12.0014 50.8215 11.9054 51.3975 11.9054 51.8882C11.9054 52.3149 11.9908 52.6562 12.1614 52.9122C12.3321 53.1682 12.6201 53.2962 13.0254 53.2962C13.5588 53.2962 14.1134 53.0829 14.6894 52.6562C15.2868 52.2082 15.8414 51.6109 16.3534 50.8642C16.8654 50.1175 17.2814 49.2749 17.6014 48.3362C17.9214 47.3975 18.0814 46.4375 18.0814 45.4562ZM30.6467 54.0962C30.156 54.0962 29.7187 53.9575 29.3347 53.6802C28.972 53.4029 28.7907 52.8375 28.7907 51.9842C28.7907 51.6215 28.812 51.2802 28.8547 50.9602C28.9187 50.6402 28.9934 50.2989 29.0787 49.9362C28.8867 50.2562 28.62 50.6509 28.2787 51.1202C27.9374 51.5895 27.5534 52.0482 27.1267 52.4962C26.7214 52.9442 26.2947 53.3175 25.8467 53.6162C25.42 53.9149 25.0147 54.0642 24.6307 54.0642C24.076 54.0642 23.628 53.8189 23.2867 53.3282C22.9454 52.8162 22.7747 52.1549 22.7747 51.3442C22.7747 50.4695 22.9774 49.5309 23.3827 48.5282C23.788 47.5255 24.3427 46.5655 25.0467 45.6482C25.7507 44.7309 26.5614 43.9842 27.4787 43.4082C28.396 42.8322 29.356 42.5442 30.3587 42.5442C30.8494 42.5442 31.3187 42.6295 31.7667 42.8002C32.2147 42.9495 32.6094 43.2055 32.9507 43.5682C33.1 43.7175 33.1747 43.8882 33.1747 44.0802C33.1747 44.2082 33.1214 44.3149 33.0147 44.4002C32.908 44.4855 32.7694 44.5069 32.5987 44.4642C32.364 43.7175 31.8627 43.3442 31.0947 43.3442C30.732 43.3442 30.316 43.4615 29.8467 43.6962C29.2707 43.9949 28.652 44.4749 27.9907 45.1362C27.3507 45.7762 26.7427 46.5122 26.1667 47.3442C25.612 48.1549 25.1534 48.9762 24.7907 49.8082C24.428 50.6402 24.2467 51.3975 24.2467 52.0802C24.2467 52.7842 24.5134 53.1362 25.0467 53.1362C25.516 53.1362 25.996 52.9122 26.4867 52.4642C26.9987 52.0162 27.4787 51.4615 27.9267 50.8002C28.396 50.1175 28.8227 49.4455 29.2067 48.7842C29.5907 48.1229 29.8894 47.5895 30.1027 47.1842C30.4227 46.6082 30.7214 46.1282 30.9987 45.7442C31.276 45.3602 31.6707 45.1682 32.1827 45.1682C32.4174 45.1682 32.652 45.2002 32.8867 45.2642C33.1214 45.3282 33.3667 45.3389 33.6227 45.2962C32.9827 45.9362 32.4174 46.6935 31.9267 47.5682C31.4574 48.4429 31.0947 49.3069 30.8387 50.1602C30.5827 50.9922 30.4547 51.6962 30.4547 52.2722C30.4547 52.9122 30.668 53.2322 31.0947 53.2322C31.436 53.2322 31.7987 53.0402 32.1827 52.6562C32.588 52.2722 32.972 51.7922 33.3347 51.2162C33.7187 50.6189 34.0707 50.0215 34.3907 49.4242C34.7107 48.8055 34.9667 48.2722 35.1587 47.8242C35.2654 47.8242 35.3507 47.8349 35.4147 47.8562C35.5 47.8775 35.5427 47.9629 35.5427 48.1122C35.5214 48.1975 35.4787 48.2935 35.4147 48.4002C35.372 48.4855 35.2974 48.6455 35.1907 48.8802C35.02 49.2215 34.7854 49.6802 34.4867 50.2562C34.188 50.8322 33.836 51.4189 33.4307 52.0162C33.0254 52.5922 32.588 53.0829 32.1187 53.4882C31.6494 53.8935 31.1587 54.0962 30.6467 54.0962ZM40.8034 54.1282C39.6301 54.1282 38.7554 53.8189 38.1794 53.2002C37.6248 52.5815 37.3474 51.7495 37.3474 50.7042C37.3474 50.2135 37.4434 49.6482 37.6354 49.0082C37.8274 48.3682 38.0834 47.7175 38.4034 47.0562C38.7234 46.3949 39.0754 45.8082 39.4594 45.2962C40.0781 44.4642 40.7608 43.8242 41.5074 43.3762C42.2541 42.9069 43.0114 42.6722 43.7794 42.6722C44.5901 42.6722 45.1661 42.8535 45.5074 43.2162C45.8701 43.5575 46.0514 43.9629 46.0514 44.4322C46.0514 44.8802 45.9448 45.2855 45.7314 45.6482C45.5181 45.9895 45.2728 46.2669 44.9954 46.4802C44.7394 46.6935 44.5154 46.8002 44.3234 46.8002C44.1528 46.8002 44.0034 46.7362 43.8754 46.6082C44.0461 46.3949 44.2274 46.1389 44.4194 45.8402C44.6114 45.5415 44.7501 45.2535 44.8354 44.9762C44.9208 44.7202 44.9634 44.4642 44.9634 44.2082C44.9634 43.6535 44.7074 43.3762 44.1954 43.3762C43.5768 43.3762 42.9688 43.6322 42.3714 44.1442C41.7954 44.6562 41.2621 45.3175 40.7714 46.1282C40.3021 46.9175 39.9181 47.7602 39.6194 48.6562C39.3421 49.5309 39.2034 50.3415 39.2034 51.0882C39.2034 51.7709 39.3421 52.3362 39.6194 52.7842C39.9181 53.2322 40.3981 53.4562 41.0594 53.4562C41.9341 53.4562 42.7021 53.1789 43.3634 52.6242C44.0248 52.0482 44.6114 51.3335 45.1234 50.4802C45.6354 49.6055 46.0834 48.7202 46.4674 47.8242C46.5528 47.8242 46.6381 47.8455 46.7234 47.8882C46.8088 47.9095 46.8514 47.9842 46.8514 48.1122C46.4248 49.1789 45.9234 50.1709 45.3474 51.0882C44.7714 52.0055 44.1101 52.7415 43.3634 53.2962C42.6381 53.8509 41.7848 54.1282 40.8034 54.1282ZM56.2817 54.0962C55.791 54.0962 55.3537 53.9575 54.9697 53.6802C54.607 53.4029 54.4257 52.8375 54.4257 51.9842C54.4257 51.6215 54.447 51.2802 54.4897 50.9602C54.5537 50.6402 54.6284 50.2989 54.7137 49.9362C54.5217 50.2562 54.255 50.6509 53.9137 51.1202C53.5724 51.5895 53.1884 52.0482 52.7617 52.4962C52.3564 52.9442 51.9297 53.3175 51.4817 53.6162C51.055 53.9149 50.6497 54.0642 50.2657 54.0642C49.711 54.0642 49.263 53.8189 48.9217 53.3282C48.5804 52.8162 48.4097 52.1549 48.4097 51.3442C48.4097 50.4695 48.6124 49.5309 49.0177 48.5282C49.423 47.5255 49.9777 46.5655 50.6817 45.6482C51.3857 44.7309 52.1964 43.9842 53.1137 43.4082C54.031 42.8322 54.991 42.5442 55.9937 42.5442C56.4844 42.5442 56.9537 42.6295 57.4017 42.8002C57.8497 42.9495 58.2444 43.2055 58.5857 43.5682C58.735 43.7175 58.8097 43.8882 58.8097 44.0802C58.8097 44.2082 58.7564 44.3149 58.6497 44.4002C58.543 44.4855 58.4044 44.5069 58.2337 44.4642C57.999 43.7175 57.4977 43.3442 56.7297 43.3442C56.367 43.3442 55.951 43.4615 55.4817 43.6962C54.9057 43.9949 54.287 44.4749 53.6257 45.1362C52.9857 45.7762 52.3777 46.5122 51.8017 47.3442C51.247 48.1549 50.7884 48.9762 50.4257 49.8082C50.063 50.6402 49.8817 51.3975 49.8817 52.0802C49.8817 52.7842 50.1484 53.1362 50.6817 53.1362C51.151 53.1362 51.631 52.9122 52.1217 52.4642C52.6337 52.0162 53.1137 51.4615 53.5617 50.8002C54.031 50.1175 54.4577 49.4455 54.8417 48.7842C55.2257 48.1229 55.5244 47.5895 55.7377 47.1842C56.0577 46.6082 56.3564 46.1282 56.6337 45.7442C56.911 45.3602 57.3057 45.1682 57.8177 45.1682C58.0524 45.1682 58.287 45.2002 58.5217 45.2642C58.7564 45.3282 59.0017 45.3389 59.2577 45.2962C58.6177 45.9362 58.0524 46.6935 57.5617 47.5682C57.0924 48.4429 56.7297 49.3069 56.4737 50.1602C56.2177 50.9922 56.0897 51.6962 56.0897 52.2722C56.0897 52.9122 56.303 53.2322 56.7297 53.2322C57.071 53.2322 57.4337 53.0402 57.8177 52.6562C58.223 52.2722 58.607 51.7922 58.9697 51.2162C59.3537 50.6189 59.7057 50.0215 60.0257 49.4242C60.3457 48.8055 60.6017 48.2722 60.7937 47.8242C60.9004 47.8242 60.9857 47.8349 61.0497 47.8562C61.135 47.8775 61.1777 47.9629 61.1777 48.1122C61.1564 48.1975 61.1137 48.2935 61.0497 48.4002C61.007 48.4855 60.9324 48.6455 60.8257 48.8802C60.655 49.2215 60.4204 49.6802 60.1217 50.2562C59.823 50.8322 59.471 51.4189 59.0657 52.0162C58.6604 52.5922 58.223 53.0829 57.7537 53.4882C57.2844 53.8935 56.7937 54.0962 56.2817 54.0962Z" fill="#F3F3F3"/>
</g>
</g>
<defs>
<clipPath id="clip0_2001_788">
<rect width="181" height="71" fill="white" transform="translate(0.5)"/>
</clipPath>
</defs>
</svg>
